<svg width="276px" height="36px" version="1.1" viewBox="0 0 276 36" xmlns="http://www.w3.org/2000/svg">
 <title>Logo</title>
 <desc>Created with Sketch.</desc>
 <g transform="translate(224.89)" fill="#fff">
  <g id="Group">
   <path id="Path" d="m17.641 30.927c0-0.49091-0.32974-0.81818-0.82435-0.81818h-14.344c-0.49461 0-0.82435 0.32727-0.82435 0.81818s0.32974 0.81818 0.82435 0.81818h14.344c0.49461 0 0.82435-0.40909 0.82435-0.81818z"/>
   <path d="m5.7704 34.2h-1.6487c-0.49461 0-0.82435 0.32727-0.82435 0.81818s0.32974 0.81818 0.82435 0.81818h1.6487c0.49461 0 0.82435-0.32727 0.82435-0.81818s-0.32974-0.81818-0.82435-0.81818z"/>
   <path d="m9.6449 26.836c0-0.49091-0.32974-0.81818-0.82435-0.81818h-7.9962c-0.49461 0-0.82435 0.32727-0.82435 0.81818s0.32974 0.81818 0.82435 0.81818h7.9962c0.49461 0 0.82435-0.40909 0.82435-0.81818z"/>
   <path id="Shape" d="m50.615 28.227c-0.2473-0.49091-0.74192-0.9-1.2365-1.1455l-6.2651-2.3727-2.5555-0.9c-0.74192-0.32727-1.4014-0.81818-1.8136-1.4727l-2.1433-3.5182c0.41218-0.08182 0.65948-0.40909 0.65948-0.81818 0-0.49091-0.32974-0.81818-0.82435-0.81818h-0.82435l-0.98922-1.6364c0.41218-0.08182 0.65948-0.40909 0.65948-0.81818 0-0.49091-0.32974-0.81818-0.82435-0.81818h-0.82435l-0.82435-1.3091c0.32974-0.08182 0.57704-0.40909 0.57704-0.73636 0-0.49091-0.32974-0.81818-0.82435-0.81818h-0.74192l-1.0717-1.7182s0-0.081818-0.08244-0.081818c-0.98921-1.1455-2.3082-1.7182-3.7096-1.5545-1.2365 0.16364-2.2257 0.9-2.6379 1.8-0.08244 0.24545-0.08244 0.49091 0.08244 0.73636l6.8421 11.618c0.08243 0.16364 0.2473 0.32727 0.41218 0.32727l8.4084 3.1909h0.08243l2.473 0.9 6.1826 2.3727c0.16487 0.08182 0.32974 0.16364 0.41218 0.40909 0.32974 0.65454 0.32974 1.3091-0.08243 1.9636h-13.437c-0.82435 0-1.6487-0.24546-2.3082-0.73636l-22.999-16.936s0.32974-0.16364 0.74192-0.73636 0.57704-1.3091 0.57704-2.0455l-0.74192-6.8727 0.98922-1.5545c0.2473-0.32727 0.74191-0.40909 1.0717-0.16364 0.2473 0.24545 1.2365 1.0636 3.6271 4.9091 1.2365 1.8 3.215 3.1091 5.4407 3.4364 0.41218 0.08182 0.90678-0.24546 0.98922-0.65455 0.08243-0.40909-0.2473-0.9-0.65948-0.98182-1.7311-0.32727-3.3798-1.3091-4.3691-2.7818-2.8852-4.4182-3.7096-5.0727-4.0393-5.3182-1.0717-0.73636-2.5555-0.49091-3.3798 0.57273l-5.0285 7.9364c-0.32974 0.49091-0.41217 1.0636-0.32974 1.6364-0.49461 0.16364-0.98922 0.40909-1.2365 0.9l-1.319 2.0455c-0.74191 1.0636-0.41217 2.5364 0.65948 3.2727 0.74191 0.57273 2.3082 1.5545 4.6164 3.0273 0.16487 0.08182 0.32974 0.16364 0.41217 0.16364 0.2473 0 0.49461-0.16364 0.65948-0.40909 0.2473-0.40909 0.16487-0.9-0.2473-1.1455-2.2257-1.4727-3.792-2.4545-4.5339-3.0273-0.32974-0.24546-0.41217-0.65455-0.16487-1.0636l1.2365-1.8818c0.2473-0.32727 0.74191-0.40909 1.0717-0.16364l25.885 19.145c0.98922 0.73636 2.1433 1.0636 3.2974 1.0636h11.376c-1.7311 0.81818-4.1217 1.5545-6.1826 1.5545h-5.2758c-1.4014 0-2.8028-0.40909-3.9569-1.1455-4.7812-3.0273-13.684-8.6727-20.197-12.845-0.41218-0.24546-0.90678-0.16364-1.1541 0.24545-0.24731 0.40909-0.16487 0.9 0.2473 1.1455 6.3475 4.0909 15.003 9.5727 19.867 12.682h-21.268c-0.49461 0-0.82435 0.32727-0.82435 0.81818s0.32974 0.81818 0.82435 0.81818h31.655c3.3798 0 8.2435-1.8 9.48-3.5182 1.0717-1.4727 1.1541-2.8636 0.41218-4.1727zm-18.218-7.3636-6.4299-10.882c0.2473-0.24545 0.65948-0.49091 1.1541-0.57273 0.49461-0.081818 1.4014 0 2.2257 0.9l0.49461 0.81818h-0.74192c-0.49461 0-0.82435 0.32727-0.82435 0.81818s0.32974 0.81818 0.82435 0.81818h1.7311l0.82435 1.3091h-0.65948c-0.49461 0-0.82435 0.32727-0.82435 0.81818s0.32974 0.81818 0.82435 0.81818h1.6487l0.98922 1.5545h-0.65948c-0.49461 0-0.82435 0.32727-0.82435 0.81818s0.32974 0.81818 0.82435 0.81818h1.6487l2.3082 3.6zm-25.39-10.882 2.5555-4.0091 0.49461 4.7455c0 0.32727-0.082435 0.65454-0.24731 0.9-0.16487 0.24545-0.49461 0.9-1.2365 0.32727 0 0-0.41217-0.24546-1.1541-0.81818-0.49461-0.40909-0.57704-0.81818-0.41217-1.1455z"/>
  </g>
 </g>
 <text transform="scale(1.0043 .99572)" x="-2.3111544" y="35.219429" fill="#ffffff" font-family="Chandas" font-size="30.6px" stroke="#ffffff" style="line-height:1.25" xml:space="preserve"><tspan x="-2.3111544" y="35.219429" fill="#ffffff" font-family="'DejaVu Sans'" font-weight="bold" stroke="#ffffff" stroke-width=".74112">KAELLSHOES</tspan></text>
</svg>
