<?xml version="1.0" encoding="UTF-8" standalone="no"?>
<svg
   width="90"
   height="90"
   fill="currentColor"
   class="bi bi-person-circle"
   viewBox="0 0 90 90"
   version="1.1"
   id="svg6"
   sodipodi:docname="perfil.svg"
   inkscape:version="1.1.1 (1:1.1+202109281949+c3084ef5ed)"
   xmlns:inkscape="http://www.inkscape.org/namespaces/inkscape"
   xmlns:sodipodi="http://sodipodi.sourceforge.net/DTD/sodipodi-0.dtd"
   xmlns="http://www.w3.org/2000/svg"
   xmlns:svg="http://www.w3.org/2000/svg">
  <defs
     id="defs10" />
  <sodipodi:namedview
     id="namedview8"
     pagecolor="#ffffff"
     bordercolor="#999999"
     borderopacity="1"
     inkscape:pageshadow="0"
     inkscape:pageopacity="0"
     inkscape:pagecheckerboard="0"
     showgrid="false"
     inkscape:zoom="3.921875"
     inkscape:cx="21.035857"
     inkscape:cy="45.768924"
     inkscape:window-width="1366"
     inkscape:window-height="701"
     inkscape:window-x="0"
     inkscape:window-y="0"
     inkscape:window-maximized="1"
     inkscape:current-layer="svg6" />
  <g
     id="g829"
     transform="matrix(5.4706185,0,0,5.4706185,-9.706185,1.235052)"
     style="fill:#ffffff;stroke-width:0.182795">
    <path
       d="M 13,6 A 3,3 0 1 1 7,6 3,3 0 0 1 13,6 Z"
       id="path2"
       style="fill:#ffffff;stroke-width:0.182795" />
    <path
       fill-rule="evenodd"
       d="M 2,8 A 8,8 0 1 1 18,8 8,8 0 0 1 2,8 Z M 10,1 A 7,7 0 0 0 4.532,12.37 C 5.242,11.226 6.805,10 10,10 c 3.195,0 4.757,1.225 5.468,2.37 A 7,7 0 0 0 10,1 Z"
       id="path4"
       style="fill:#ffffff;stroke-width:0.041517" />
  </g>
</svg>
